<svg width="501" height="142" viewBox="0 0 501 142" fill="none" xmlns="http://www.w3.org/2000/svg">
<path d="M52.67 0.420044L0.719971 30.42V50.42L52.68 80.42L104.64 50.42V30.42L52.67 0.420044ZM52.68 60.42L18.04 40.42L52.68 20.42L87.32 40.42L52.68 60.42Z" fill="#30F2E2"/>
<path d="M0.719971 70.42L52.68 100.42L104.64 70.42V90.42L52.68 120.42L0.719971 90.42V70.42Z" fill="#30F2E2"/>
<path d="M178.83 90.4202H134.65V15.4202H150.71V75.6202H178.84V90.4202H178.83Z" fill="#141414"/>
<path d="M225.66 89.9001C222.06 91.1601 218.22 91.7901 214.17 91.7901C210.12 91.7901 206.26 91.1601 202.63 89.9001C198.99 88.6401 195.7 86.7901 192.76 84.3401C189.82 81.8901 187.48 78.6001 185.73 74.4801C183.98 70.3501 183.11 65.6601 183.11 60.4201C183.11 50.2801 186.14 42.5401 192.19 37.2301C198.24 31.9101 205.57 29.2501 214.18 29.2501C222.79 29.2501 230.01 31.9101 236.06 37.2301C242.11 42.5501 245.14 50.2801 245.14 60.4201C245.14 65.6701 244.28 70.3601 242.57 74.4801C240.85 78.6101 238.51 81.9001 235.54 84.3401C232.57 86.7901 229.28 88.6401 225.68 89.9001H225.66ZM203.15 73.6301C205.95 76.8501 209.62 78.4601 214.17 78.4601C218.72 78.4601 222.37 76.8501 225.14 73.6301C227.9 70.4101 229.28 66.0001 229.28 60.4101C229.28 54.8201 227.88 50.5101 225.08 47.2901C222.28 44.0701 218.61 42.4601 214.06 42.4601C209.51 42.4601 205.94 44.0501 203.15 47.2401C200.35 50.4201 198.95 54.8101 198.95 60.4101C198.95 66.0101 200.35 70.4201 203.15 73.6301Z" fill="#141414"/>
<path d="M314.37 105.41L298.42 114.62V80.2301C297.02 83.4501 294.62 86.1101 291.23 88.2101C287.84 90.3101 283.87 91.3601 279.32 91.3601C271.83 91.3601 265.52 88.7401 260.38 83.4901C255.24 78.2401 252.67 70.5501 252.67 60.4001C252.67 50.2501 255.22 42.4401 260.33 37.1501C265.44 31.8701 271.73 29.2301 279.22 29.2301C283.84 29.2301 287.86 30.2501 291.29 32.2701C294.72 34.3001 297.1 36.9201 298.43 40.1401V30.4801H314.38V105.4L314.37 105.41ZM283.83 78.2401C288.31 78.2401 291.94 76.6501 294.74 73.4701C297.54 70.2901 298.94 65.9301 298.94 60.4001C298.94 54.8701 297.54 50.3901 294.74 47.1801C291.94 43.9601 288.27 42.3501 283.72 42.3501C279.17 42.3501 275.52 43.9601 272.75 47.1801C269.99 50.4001 268.6 54.8101 268.6 60.4001C268.6 65.9901 270 70.2801 272.8 73.4701C275.6 76.6501 279.27 78.2401 283.82 78.2401H283.83Z" fill="#141414"/>
<path d="M350.02 91.7801C342.32 91.7801 335.96 89.0001 330.92 83.4401C325.88 77.8801 323.36 70.2001 323.36 60.4001C323.36 50.6001 325.86 42.9601 330.86 37.4701C335.86 31.9801 342.21 29.2301 349.91 29.2301C354.25 29.2301 358.16 30.2501 361.66 32.2701C365.16 34.3001 367.64 37.0601 369.11 40.5601V30.3801H385.06V90.4101H369.11V80.5401C367.64 83.9701 365.16 86.7001 361.66 88.7301C358.16 90.7601 354.28 91.7701 350.01 91.7701L350.02 91.7801ZM354.53 78.4501C359.01 78.4501 362.64 76.8401 365.44 73.6201C368.24 70.4001 369.64 65.9901 369.64 60.4001C369.64 54.8101 368.24 50.5001 365.44 47.2801C362.64 44.0601 358.97 42.4501 354.42 42.4501C349.87 42.4501 346.3 44.0401 343.51 47.2301C340.71 50.4101 339.31 54.8001 339.31 60.4001C339.31 66.0001 340.71 70.4101 343.51 73.6201C346.31 76.8401 349.98 78.4501 354.53 78.4501Z" fill="#141414"/>
<path d="M497.78 79.0401C492.75 87.3901 484.05 91.5701 471.7 91.5701C462.25 91.5701 454.68 88.7201 448.98 83.0201C443.28 77.3201 440.43 69.7801 440.43 60.4001C440.43 51.0201 443.28 43.6601 448.98 37.8901C454.68 32.1201 462.08 29.2301 471.18 29.2301C481.11 29.2301 488.78 32.4101 494.16 38.7801C499.55 45.1501 501.75 53.5801 500.77 64.0701H456.38C456.52 68.9701 457.99 72.7601 460.79 75.4601C463.59 78.1501 467.37 79.5001 472.12 79.5001C478.91 79.5001 483.42 77.0201 485.66 72.0501L497.78 79.0401ZM456.7 53.5801H486.19C485.84 49.5901 484.37 46.4101 481.78 44.0301C479.19 41.6501 475.8 40.4601 471.6 40.4601C467.4 40.4601 464.08 41.6001 461.42 43.8701C458.76 46.1401 457.19 49.3801 456.7 53.5801Z" fill="#141414"/>
<path d="M427.72 91.3401C419.32 91.3401 413.2 89.4301 409.35 85.6201C405.5 81.8101 403.58 75.4201 403.58 66.4701V42.4401H395.08V30.3701H403.58V20.3701L419.64 11.1201V30.3701H436.01V42.4401H419.64V65.0001C419.64 70.0401 420.44 73.5901 422.05 75.6501C423.66 77.7101 426.46 78.7501 430.45 78.7501C431.22 78.7501 432.83 78.5801 435.28 78.2301L437.38 90.3001C434.72 91.0001 431.5 91.3501 427.73 91.3501L427.72 91.3401Z" fill="#141414"/>
<path d="M425.16 127.33V128.58H435.66C433.92 134.37 427.82 137.66 422.02 135.92C416.23 134.18 412.94 128.08 414.68 122.28C416.42 116.49 422.52 113.2 428.32 114.94C430.06 115.46 431.63 116.4 432.92 117.69L436.24 114.37C430.12 108.26 420.2 108.26 414.09 114.37C407.98 120.49 407.98 130.41 414.09 136.52C420.21 142.63 430.13 142.63 436.24 136.52C439.18 133.58 440.83 129.6 440.82 125.44V123.94H428.59C426.71 123.94 425.18 125.45 425.15 127.33H425.16Z" fill="#141414"/>
<path d="M463.66 124.24C466.63 120.63 466.1 115.3 462.49 112.33C460.98 111.09 459.08 110.41 457.12 110.41H443.99V140.41H458.56C463.53 140.3 467.47 136.17 467.35 131.2C467.29 128.41 465.93 125.81 463.69 124.16L463.66 124.24ZM458.53 135.79H448.66V115.1H457.12C459.19 114.91 461.02 116.44 461.21 118.51C461.4 120.58 459.87 122.41 457.8 122.6C457.58 122.62 457.35 122.62 457.13 122.6H456.81C454.91 122.6 453.37 124.15 453.37 126.05V127.31H458.53C459 127.31 459.47 127.39 459.91 127.55C462.11 128.33 463.27 130.74 462.5 132.95C461.91 134.63 460.32 135.77 458.53 135.78V135.79Z" fill="#141414"/>
<path d="M488.77 123.88C486.86 123.88 485.32 125.42 485.32 127.33V128.58H495.82C494.09 134.38 487.98 137.69 482.18 135.96C476.38 134.23 473.07 128.12 474.8 122.32C476.53 116.52 482.64 113.21 488.44 114.94C490.18 115.46 491.77 116.4 493.06 117.69L496.39 114.37C490.26 108.26 480.35 108.28 474.24 114.41C468.13 120.54 468.15 130.45 474.28 136.56C480.41 142.67 490.32 142.65 496.43 136.52C499.36 133.58 501 129.59 501 125.44V123.94L488.77 123.88Z" fill="#141414"/>
</svg>
