<svg width="501" height="142" viewBox="0 0 501 142" fill="none" xmlns="http://www.w3.org/2000/svg">
<path d="M52.67 0.710022L0.719971 30.71V50.71L52.68 80.71L104.64 50.71V30.71L52.67 0.710022ZM52.68 60.71L18.04 40.71L52.68 20.71L87.32 40.71L52.68 60.71Z" fill="white"/>
<path d="M0.719971 70.71L52.68 100.71L104.64 70.71V90.71L52.68 120.71L0.719971 90.71V70.71Z" fill="white"/>
<path d="M178.83 90.71H134.65V15.71H150.71V75.91H178.84V90.71H178.83Z" fill="white"/>
<path d="M225.66 90.19C222.06 91.45 218.22 92.08 214.17 92.08C210.12 92.08 206.26 91.45 202.63 90.19C198.99 88.93 195.7 87.08 192.76 84.63C189.82 82.18 187.48 78.89 185.73 74.77C183.98 70.64 183.11 65.95 183.11 60.71C183.11 50.57 186.14 42.83 192.19 37.52C198.24 32.2 205.57 29.54 214.18 29.54C222.79 29.54 230.01 32.2 236.06 37.52C242.11 42.84 245.14 50.57 245.14 60.71C245.14 65.96 244.28 70.65 242.57 74.77C240.85 78.9 238.51 82.19 235.54 84.63C232.57 87.08 229.28 88.93 225.68 90.19H225.66ZM203.15 73.92C205.95 77.14 209.62 78.75 214.17 78.75C218.72 78.75 222.37 77.14 225.14 73.92C227.9 70.7 229.28 66.29 229.28 60.7C229.28 55.11 227.88 50.8 225.08 47.58C222.28 44.36 218.61 42.75 214.06 42.75C209.51 42.75 205.94 44.34 203.15 47.53C200.35 50.71 198.95 55.1 198.95 60.7C198.95 66.3 200.35 70.71 203.15 73.92Z" fill="white"/>
<path d="M314.37 105.7L298.42 114.91V80.52C297.02 83.74 294.62 86.4 291.23 88.5C287.84 90.6 283.87 91.65 279.32 91.65C271.83 91.65 265.52 89.03 260.38 83.78C255.24 78.53 252.67 70.84 252.67 60.69C252.67 50.54 255.22 42.73 260.33 37.44C265.44 32.16 271.73 29.52 279.22 29.52C283.84 29.52 287.86 30.54 291.29 32.56C294.72 34.59 297.1 37.21 298.43 40.43V30.77H314.38V105.69L314.37 105.7ZM283.83 78.53C288.31 78.53 291.94 76.94 294.74 73.76C297.54 70.58 298.94 66.22 298.94 60.69C298.94 55.16 297.54 50.68 294.74 47.47C291.94 44.25 288.27 42.64 283.72 42.64C279.17 42.64 275.52 44.25 272.75 47.47C269.99 50.69 268.6 55.1 268.6 60.69C268.6 66.28 270 70.57 272.8 73.76C275.6 76.94 279.27 78.53 283.82 78.53H283.83Z" fill="white"/>
<path d="M350.02 92.07C342.32 92.07 335.96 89.29 330.92 83.73C325.88 78.17 323.36 70.49 323.36 60.69C323.36 50.89 325.86 43.25 330.86 37.76C335.86 32.27 342.21 29.52 349.91 29.52C354.25 29.52 358.16 30.54 361.66 32.56C365.16 34.59 367.64 37.35 369.11 40.85V30.67H385.06V90.7H369.11V80.83C367.64 84.26 365.16 86.99 361.66 89.02C358.16 91.05 354.28 92.06 350.01 92.06L350.02 92.07ZM354.53 78.74C359.01 78.74 362.64 77.13 365.44 73.91C368.24 70.69 369.64 66.28 369.64 60.69C369.64 55.1 368.24 50.79 365.44 47.57C362.64 44.35 358.97 42.74 354.42 42.74C349.87 42.74 346.3 44.33 343.51 47.52C340.71 50.7 339.31 55.09 339.31 60.69C339.31 66.29 340.71 70.7 343.51 73.91C346.31 77.13 349.98 78.74 354.53 78.74Z" fill="white"/>
<path d="M497.78 79.33C492.75 87.68 484.05 91.86 471.7 91.86C462.25 91.86 454.68 89.01 448.98 83.31C443.28 77.61 440.43 70.07 440.43 60.69C440.43 51.31 443.28 43.95 448.98 38.18C454.68 32.41 462.08 29.52 471.18 29.52C481.11 29.52 488.78 32.7 494.16 39.07C499.55 45.44 501.75 53.87 500.77 64.36H456.38C456.52 69.26 457.99 73.05 460.79 75.75C463.59 78.44 467.37 79.79 472.12 79.79C478.91 79.79 483.42 77.31 485.66 72.34L497.78 79.33ZM456.7 53.87H486.19C485.84 49.88 484.37 46.7 481.78 44.32C479.19 41.94 475.8 40.75 471.6 40.75C467.4 40.75 464.08 41.89 461.42 44.16C458.76 46.43 457.19 49.67 456.7 53.87Z" fill="white"/>
<path d="M427.72 91.63C419.32 91.63 413.2 89.72 409.35 85.91C405.5 82.1 403.58 75.71 403.58 66.76V42.73H395.08V30.66H403.58V20.66L419.64 11.41V30.66H436.01V42.73H419.64V65.29C419.64 70.33 420.44 73.88 422.05 75.94C423.66 78 426.46 79.04 430.45 79.04C431.22 79.04 432.83 78.87 435.28 78.52L437.38 90.59C434.72 91.29 431.5 91.64 427.73 91.64L427.72 91.63Z" fill="white"/>
<path d="M425.16 127.62V128.87H435.66C433.92 134.66 427.82 137.95 422.02 136.21C416.23 134.47 412.94 128.37 414.68 122.57C416.42 116.78 422.52 113.49 428.32 115.23C430.06 115.75 431.63 116.69 432.92 117.98L436.24 114.66C430.12 108.55 420.2 108.55 414.09 114.66C407.98 120.78 407.98 130.7 414.09 136.81C420.21 142.92 430.13 142.92 436.24 136.81C439.18 133.87 440.83 129.89 440.82 125.73V124.23H428.59C426.71 124.23 425.18 125.74 425.15 127.62H425.16Z" fill="white"/>
<path d="M463.66 124.53C466.63 120.92 466.1 115.59 462.49 112.62C460.98 111.38 459.08 110.7 457.12 110.7H443.99V140.7H458.56C463.53 140.59 467.47 136.46 467.35 131.49C467.29 128.7 465.93 126.1 463.69 124.45L463.66 124.53ZM458.53 136.08H448.66V115.39H457.12C459.19 115.2 461.02 116.73 461.21 118.8C461.4 120.87 459.87 122.7 457.8 122.89C457.58 122.91 457.35 122.91 457.13 122.89H456.81C454.91 122.89 453.37 124.44 453.37 126.34V127.6H458.53C459 127.6 459.47 127.68 459.91 127.84C462.11 128.62 463.27 131.03 462.5 133.24C461.91 134.92 460.32 136.06 458.53 136.07V136.08Z" fill="white"/>
<path d="M488.77 124.17C486.86 124.17 485.32 125.71 485.32 127.62V128.87H495.82C494.09 134.67 487.98 137.98 482.18 136.25C476.38 134.52 473.07 128.41 474.8 122.61C476.53 116.81 482.64 113.5 488.44 115.23C490.18 115.75 491.77 116.69 493.06 117.98L496.39 114.66C490.26 108.55 480.35 108.57 474.24 114.7C468.13 120.83 468.15 130.74 474.28 136.85C480.41 142.96 490.32 142.94 496.43 136.81C499.36 133.87 501 129.88 501 125.73V124.23L488.77 124.17Z" fill="white"/>
</svg>
